<svg width="295" height="295" viewBox="0 0 295 295" fill="#0000" xmlns="http://www.w3.org/2000/svg">
<g clip-path="url(#clip0)">
<rect width="295" height="295" rx="50" fill="#fbbc04"/>
<path d="M117.763 214.621C-76.5153 -26.6604 367.147 -30.3359 177.95 214.611C165.273 207.824 152.059 207.831 117.763 214.621Z" fill="white"/>
<path d="M185.5 230.077C160.5 220.148 152.5 221.148 118 230.077L109 242.505C143.238 232.521 140.418 232.229 176.5 242.505L185.5 230.077Z" fill="white"/>
<path d="M109 250.077C134 240.148 142 241.148 176.5 250.077L185.5 262.505C151.262 252.521 154.082 252.229 118 262.505L109 250.077Z" fill="white"/>
<path d="M100.371 98.2422C102.031 93.3594 104.814 89.7786 108.721 87.5C112.594 85.2539 117.298 84.4401 122.832 85.0586L133.916 86.5723C135.641 86.7676 137.253 86.7676 138.75 86.5723C143.535 85.9212 146.107 83.0078 146.465 77.832L151.494 78.418C151.787 85.9049 155.921 90.2669 163.896 91.5039L175.957 93.1641C187.318 94.9219 194.691 101.4 198.076 112.598L194.17 113.477C191.338 105.143 184.925 100.277 174.932 98.877L163.164 97.2168C156.296 96.0449 151.527 92.3503 148.857 86.1328C146.774 89.9414 143.242 92.041 138.262 92.4316C136.797 92.5293 135.332 92.513 133.867 92.3828L122.783 90.8691C120.765 90.6087 118.812 90.5599 116.924 90.7227C110.609 91.1458 106.377 94.1406 104.229 99.707L100.371 98.2422Z" fill="#FFA800"/>
</g>
<defs>
<clipPath id="clip0">
<rect width="295" height="295" fill="white"/>
</clipPath>
</defs>
</svg>
